<svg width="121" height="52" viewBox="0 0 121 52" fill="none" xmlns="http://www.w3.org/2000/svg">
<path d="M22.7508 6.58506C24.168 4.8124 25.1297 2.43224 24.8761 0C22.8014 0.10316 20.2697 1.36871 18.804 3.14276C17.4879 4.66196 16.3231 7.14178 16.6268 9.47206C18.9557 9.67407 21.2824 8.30798 22.7508 6.58506Z" fill="black"/>
<path d="M24.8496 9.92707C21.4675 9.72561 18.5919 11.8466 16.9768 11.8466C15.3608 11.8466 12.8875 10.0286 10.2124 10.0776C6.73063 10.1287 3.49995 12.0973 1.7331 15.2284C-1.90101 21.492 0.77406 30.7831 4.30804 35.8844C6.02422 38.4082 8.09251 41.1871 10.8178 41.0873C13.3927 40.9863 14.402 39.42 17.532 39.42C20.6596 39.42 21.5688 41.0873 24.2945 41.0368C27.1211 40.9863 28.8883 38.5117 30.6045 35.9855C32.5732 33.1085 33.3792 30.3305 33.4299 30.178C33.3792 30.1275 27.9793 28.056 27.9292 21.8444C27.8782 16.6434 32.1687 14.1695 32.3707 14.0161C29.9478 10.4326 26.1621 10.0286 24.8496 9.92707Z" fill="black"/>
<path d="M54.2983 2.88844C61.6493 2.88844 66.768 7.95552 66.768 15.3328C66.768 22.7364 61.544 27.8298 54.114 27.8298H45.9751V40.773H40.0947V2.88843L54.2983 2.88844ZM45.9751 22.8939H52.7224C57.8422 22.8939 60.756 20.1376 60.756 15.3591C60.756 10.5812 57.8422 7.85069 52.7487 7.85069H45.9751V22.8939Z" fill="black"/>
<path d="M68.3047 32.9234C68.3047 28.0923 72.0065 25.1257 78.5705 24.7581L86.1311 24.312V22.1856C86.1311 19.1137 84.0569 17.276 80.5921 17.276C77.3096 17.276 75.2617 18.8509 74.7634 21.3191H69.4076C69.7226 16.3305 73.9754 12.655 80.8017 12.655C87.4964 12.655 91.7755 16.1994 91.7755 21.7389V40.7731H86.3408V36.2312H86.2101C84.6089 39.303 81.1167 41.2456 77.4939 41.2456C72.0855 41.2456 68.3047 37.8851 68.3047 32.9234ZM86.1311 30.4293V28.2503L79.3311 28.6701C75.9443 28.9066 74.0281 30.403 74.0281 32.7659C74.0281 35.1809 76.0233 36.7563 79.0688 36.7563C83.0329 36.7563 86.1311 34.0258 86.1311 30.4293Z" fill="black"/>
<path d="M96.9063 50.9336V46.339C97.3256 46.4438 98.2706 46.4438 98.7436 46.4438C101.369 46.4438 102.787 45.3414 103.653 42.506C103.653 42.4533 104.152 40.8258 104.152 40.7994L94.1758 13.1538H100.318L107.303 35.6275H107.407L114.391 13.1538H120.377L110.032 42.2169C107.67 48.912 104.94 51.0647 99.2165 51.0647C98.7436 51.0647 97.3256 51.0121 96.9063 50.9336Z" fill="black"/>
</svg>
