<svg width="512" height="512" viewBox="0 0 512 512" fill="none" xmlns="http://www.w3.org/2000/svg">
<rect width="512" height="512" rx="24" fill="#1D0B42"/>
<path d="M341.066 192.213C337.683 190.521 334.3 187.138 333.172 183.754C337.683 173.604 339.938 163.453 339.938 153.866C339.938 127.362 320.768 103.678 284.684 103.678C270.589 103.678 256.493 106.497 241.834 111.572C239.015 107.625 238.451 105.369 237.324 100.294L289.195 61.3835C297.652 59.1279 306.109 58 317.385 58C367.565 58 394.064 95.2188 394.064 137.513C394.064 147.099 393.501 157.25 391.809 163.453L341.066 192.213ZM92.4229 449.925C91.859 446.541 91.859 440.338 92.4229 436.955C143.73 423.984 152.187 408.759 152.187 350.111V100.858L92.4229 79.429C91.859 76.0455 91.859 69.8424 92.4229 66.4588L212.516 67.0227V408.759C227.739 411.578 245.217 412.706 263.259 412.706C281.301 412.706 303.29 411.014 322.46 407.067C325.279 408.759 327.534 412.706 328.098 416.09C305.545 430.751 289.195 443.722 270.025 454.436C263.823 455 257.057 455 250.855 455C213.643 455 174.74 449.925 113.848 449.925H92.4229ZM241.27 254.244C263.259 238.455 269.461 234.507 295.96 214.77C305.545 212.514 314.003 211.95 322.46 211.95C381.097 211.95 420 257.064 420 311.2C420 328.682 416.053 347.291 408.16 361.389L354.597 398.044C351.214 396.352 348.959 394.097 347.268 390.713C357.98 373.232 363.618 348.419 363.618 328.118C363.618 278.493 331.481 258.192 289.758 258.192C276.227 258.192 261.568 260.447 246.908 264.395C244.089 262.703 241.834 258.756 241.27 254.244Z" fill="#1887EE"/>
</svg>
