<svg width="384" height="384" viewBox="0 0 384 384" fill="none" xmlns="http://www.w3.org/2000/svg">
<path d="M185.74 4.58421C187.224 -1.52823 195.917 -1.52821 197.401 4.58422L222.27 107.009C223.12 110.51 226.841 112.477 230.212 111.21L284.686 90.727C289.512 88.9123 294.228 93.6285 292.414 98.4549L271.931 152.929C270.663 156.3 272.631 160.021 276.131 160.871L378.556 185.74C384.669 187.224 384.669 195.917 378.556 197.401L276.131 222.27C272.631 223.12 270.663 226.841 271.931 230.212L292.414 284.686C294.228 289.512 289.512 294.228 284.686 292.414L230.212 271.931C226.841 270.663 223.12 272.631 222.27 276.131L197.401 378.556C195.917 384.669 187.224 384.669 185.74 378.556L160.871 276.131C160.021 272.631 156.3 270.663 152.929 271.931L98.4548 292.414C93.6284 294.228 88.9123 289.512 90.727 284.686L111.21 230.212C112.477 226.841 110.51 223.12 107.009 222.27L4.58421 197.401C-1.52823 195.917 -1.52821 187.224 4.58422 185.74L107.009 160.871C110.51 160.021 112.477 156.3 111.21 152.929L90.727 98.4548C88.9123 93.6284 93.6285 88.9123 98.4549 90.727L152.929 111.21C156.3 112.477 160.021 110.51 160.871 107.009L185.74 4.58421Z" fill="#6C3BCE"/>
</svg>
